<?xml version="1.0" standalone="no"?>
<!DOCTYPE svg PUBLIC "-//W3C//DTD SVG 20010904//EN"
 "http://www.w3.org/TR/2001/REC-SVG-20010904/DTD/svg10.dtd">
<svg version="1.0" xmlns="http://www.w3.org/2000/svg"
 width="1170.000000pt" height="780.000000pt" viewBox="0 0 1170.000000 780.000000"
 preserveAspectRatio="xMidYMid meet">

<g transform="translate(0.000000,780.000000) scale(0.100000,-0.100000)"
fill="#000000" stroke="none">
<path d="M0 3900 l0 -3900 5850 0 5850 0 0 3900 0 3900 -3429 0 c-2897 0
-3430 -2 -3434 -14 -3 -7 -9 -35 -12 -62 -4 -27 -12 -57 -17 -66 -11 -23 -68
-25 -68 -3 0 8 -7 15 -15 15 -18 0 -20 -17 -4 -22 23 -8 19 -59 -7 -84 -14
-15 -24 -37 -24 -53 0 -16 -7 -31 -15 -35 -9 -3 -12 -12 -8 -23 5 -15 3 -16
-8 -5 -7 6 -27 12 -45 12 -21 0 -40 8 -55 24 -19 19 -30 23 -59 19 -19 -3 -39
-10 -45 -14 -5 -5 -19 -9 -32 -9 -29 0 -31 -32 -3 -62 26 -28 28 -81 3 -76
-11 2 -18 12 -18 25 0 29 -12 38 -29 24 -16 -13 -36 -7 -36 11 0 6 9 8 20 5
23 -6 28 18 5 27 -12 4 -14 18 -9 68 4 35 12 72 17 83 6 11 12 36 13 55 1 19
5 63 9 98 l8 62 -2202 0 -2201 0 0 -3900z m6221 3650 c10 0 19 -4 19 -10 0 -5
18 -10 40 -10 35 0 42 -4 51 -27 5 -14 19 -34 30 -44 12 -10 18 -22 15 -28 -3
-5 1 -17 10 -26 14 -13 15 -21 5 -42 -10 -21 -9 -27 6 -38 17 -13 16 -14 -10
-24 -16 -6 -38 -11 -50 -11 -28 0 -67 26 -67 45 0 8 -8 19 -19 24 -11 6 -22
27 -25 48 -8 44 -27 103 -38 119 -4 5 -4 21 0 35 5 18 7 20 10 7 2 -10 12 -18
23 -18z m2069 -171 c0 -9 9 -19 20 -22 11 -3 20 -12 20 -20 0 -9 9 -32 21 -51
11 -19 18 -40 14 -45 -3 -6 6 -18 20 -27 14 -9 25 -22 25 -30 0 -24 32 -108
51 -136 11 -14 19 -35 19 -45 0 -11 3 -23 7 -27 8 -7 25 -65 44 -150 6 -28 17
-56 24 -63 7 -7 18 -41 24 -77 6 -36 22 -98 35 -138 13 -40 29 -93 36 -118 8
-25 19 -56 27 -70 7 -14 22 -45 33 -70 11 -25 24 -52 29 -60 23 -36 61 -123
61 -141 0 -10 4 -19 10 -19 5 0 12 -11 16 -24 3 -13 19 -36 35 -52 16 -15 29
-32 29 -36 0 -5 16 -22 35 -39 19 -17 35 -37 35 -43 0 -7 16 -27 35 -45 39
-35 74 -88 95 -141 7 -19 18 -39 25 -45 23 -20 47 -65 42 -78 -3 -8 6 -26 19
-40 13 -14 24 -33 24 -42 0 -9 7 -27 16 -41 9 -13 14 -27 11 -30 -7 -7 28
-110 47 -140 21 -31 35 -122 40 -256 2 -64 7 -122 11 -128 10 -15 -4 -82 -20
-100 -14 -16 -9 -70 6 -70 16 0 9 -41 -11 -62 -11 -12 -20 -30 -20 -39 0 -31
-16 -29 -18 3 -2 19 -12 38 -27 50 -15 12 -25 30 -25 46 0 34 -36 150 -55 179
-8 12 -15 33 -15 47 0 16 -7 27 -20 31 -11 3 -20 13 -20 21 0 8 -9 32 -19 52
-25 48 -50 112 -54 137 -2 11 -9 31 -17 45 -7 14 -14 35 -15 48 0 13 -5 26
-11 30 -14 9 -26 54 -30 110 -2 24 -12 69 -23 100 -30 88 -35 121 -19 139 9
12 9 15 1 9 -9 -5 -13 -1 -13 11 0 11 -6 25 -12 32 -10 11 -10 13 0 7 6 -4 12
-2 12 3 0 6 -4 11 -8 11 -5 0 -14 16 -22 35 -9 24 -16 31 -22 23 -5 -9 -8 -6
-8 10 0 12 -4 22 -10 22 -5 0 -10 6 -10 13 0 19 -62 51 -70 36 -5 -6 -16 -8
-29 -4 -14 4 -21 2 -21 -7 0 -10 -2 -10 -9 1 -8 12 -12 12 -25 -2 -9 -8 -16
-20 -16 -26 0 -6 -8 -11 -18 -11 -26 0 -52 -36 -52 -73 0 -17 -14 -59 -30 -92
-16 -33 -30 -66 -30 -72 0 -7 -3 -13 -7 -13 -5 0 -9 -19 -10 -42 -2 -23 -7
-46 -13 -52 -5 -5 -10 -17 -10 -25 0 -9 -7 -29 -15 -45 -8 -15 -15 -34 -15
-41 0 -7 -13 -37 -28 -66 -23 -44 -33 -54 -53 -52 -14 1 -17 0 -6 -3 10 -3 17
-14 16 -27 -1 -17 -2 -18 -6 -4 -6 23 -30 22 -38 -3 -7 -23 -35 -27 -35 -5 0
8 -4 15 -10 15 -5 0 -12 16 -16 35 -6 36 -18 45 -27 23 -3 -7 -6 2 -6 20 -1
19 -5 31 -11 27 -5 -3 -10 -1 -10 4 0 6 5 11 10 11 16 0 12 90 -4 96 -16 6
-29 40 -26 67 1 9 -8 31 -20 47 -12 17 -19 30 -15 30 3 0 -1 10 -9 23 -20 32
-30 162 -16 217 7 25 11 63 11 84 -1 23 4 43 11 47 20 13 22 188 4 313 -9 58
-16 154 -16 211 0 68 -4 105 -11 105 -6 0 -9 12 -8 28 1 15 -3 61 -11 102 -13
77 -10 378 5 413 4 9 13 17 21 17 10 0 14 13 14 41 0 22 4 38 9 35 5 -4 12 7
16 24 4 16 11 30 16 30 5 0 9 11 9 25 0 14 5 25 10 25 6 0 10 14 10 31 0 16 4
28 9 25 5 -3 11 0 14 7 7 20 37 17 37 -4z m-3702 -95 c12 -8 20 -19 17 -24 -8
-13 -55 10 -55 27 0 17 11 17 38 -3z m-238 -29 c0 -16 -6 -25 -15 -25 -9 0
-15 9 -15 25 0 16 6 25 15 25 9 0 15 -9 15 -25z m-30 -115 c0 -16 -4 -30 -10
-30 -11 0 -14 43 -3 53 11 12 13 8 13 -23z m-331 -804 c50 -19 55 -24 59 -56
2 -19 8 -42 13 -52 10 -19 -10 -80 -30 -93 -7 -4 -9 -16 -5 -27 4 -15 -1 -27
-21 -44 -38 -32 -59 -32 -51 2 l7 25 -31 -22 c-16 -13 -30 -25 -30 -28 -1 -12
-41 -54 -46 -48 -7 6 23 53 53 84 13 12 23 27 23 33 0 21 -18 9 -44 -29 -15
-22 -34 -42 -42 -45 -8 -3 -14 -12 -14 -21 0 -11 -6 -14 -24 -9 -13 3 -27 1
-31 -6 -11 -17 3 -24 20 -10 13 11 15 9 15 -13 0 -19 4 -25 15 -21 20 8 19
-10 -2 -27 -13 -11 -17 -11 -20 -1 -3 6 -16 12 -29 12 -21 0 -23 -2 -13 -19
15 -23 5 -51 -21 -58 -16 -4 -18 -8 -9 -20 15 -17 3 -30 -30 -35 -17 -2 -28
-13 -36 -37 -11 -34 -35 -55 -35 -31 0 10 -4 10 -15 0 -8 -7 -15 -22 -15 -35
0 -22 -35 -63 -45 -53 -3 3 1 18 9 33 8 16 13 32 11 36 -3 4 2 9 10 13 19 7
20 26 1 26 -8 0 -17 -12 -20 -26 -4 -14 -15 -35 -26 -46 -18 -19 -20 -19 -51
-4 -44 22 -47 20 -19 -9 13 -14 30 -23 38 -20 23 9 32 -4 20 -30 -12 -26 -28
-34 -28 -14 0 6 -7 8 -15 5 -9 -3 -18 1 -21 9 -4 8 -10 15 -16 15 -5 0 -7 -4
-4 -9 4 -5 0 -12 -6 -15 -9 -3 -5 -11 11 -26 23 -20 23 -22 8 -38 -16 -15 -17
-15 -17 8 l0 25 -13 -25 c-10 -20 -19 -24 -42 -22 -17 2 -33 8 -37 15 -5 8
-11 7 -22 -2 -9 -7 -13 -18 -10 -23 4 -6 10 -6 16 0 6 6 17 7 27 2 28 -15 55
-23 69 -21 13 2 15 -9 6 -33 -8 -22 -24 -20 -24 3 0 18 -35 35 -52 25 -15 -10
-8 -24 12 -24 11 0 20 -6 20 -13 0 -19 -34 -49 -51 -45 -7 2 -15 -5 -17 -14
-2 -13 3 -18 20 -18 16 0 19 -3 10 -8 -7 -5 -10 -16 -6 -25 9 -25 -31 -22 -49
3 -8 11 -17 17 -21 13 -4 -4 -9 2 -12 14 -3 12 -12 24 -20 27 -11 4 -11 2 -2
-14 10 -15 10 -22 0 -32 -9 -9 -12 -7 -12 9 0 12 -5 25 -10 28 -6 4 -10 3 -9
-2 3 -20 -2 -27 -11 -13 -8 13 -10 13 -10 -2 0 -22 40 -60 58 -53 16 6 82 -20
82 -33 0 -5 -6 -15 -14 -21 -11 -9 -18 -8 -30 4 -9 9 -16 20 -16 24 0 9 -37 8
-46 -2 -4 -4 -12 3 -18 15 -23 45 -33 30 -19 -28 12 -45 12 -58 2 -64 -23 -15
0 -40 41 -46 44 -7 58 -20 41 -37 -6 -6 -11 -21 -11 -33 0 -12 -5 -24 -12 -26
-6 -2 -8 -10 -4 -17 6 -9 11 -8 22 6 12 17 13 17 14 1 0 -11 8 -18 20 -18 11
0 20 -4 20 -9 0 -16 -20 -23 -34 -12 -7 6 -26 8 -42 5 -27 -5 -30 -2 -41 35
-7 22 -13 54 -13 69 0 36 -31 67 -48 50 -17 -17 -15 -28 6 -28 10 0 22 -3 25
-7 11 -10 -13 -32 -29 -26 -17 6 -19 -18 -3 -34 6 -6 18 -9 26 -6 11 4 13 0 7
-21 -5 -20 -2 -26 10 -26 9 0 16 -8 16 -19 0 -11 5 -23 11 -26 20 -13 4 -40
-24 -40 -25 -1 -27 2 -22 23 5 20 3 23 -15 17 -13 -4 -22 -1 -26 9 -3 9 -10
13 -15 10 -5 -3 -6 -10 -3 -16 5 -7 1 -9 -9 -5 -28 11 -20 -28 8 -43 14 -7 25
-19 25 -27 0 -15 -17 -18 -22 -3 -1 5 -13 7 -25 4 -13 -4 -20 -10 -17 -16 3
-5 0 -15 -6 -23 -10 -12 -10 -18 -1 -29 7 -8 11 -23 9 -33 -2 -9 2 -18 7 -18
6 0 23 -9 38 -19 23 -16 28 -25 25 -48 -4 -22 -1 -28 10 -23 8 3 12 0 9 -7 -2
-8 -16 -12 -32 -10 -28 4 -29 4 -12 -20 27 -37 31 -49 16 -58 -7 -5 -17 -6
-21 -4 -4 3 -8 0 -8 -5 0 -6 6 -11 14 -11 13 0 26 -20 26 -41 0 -20 -20 -7
-21 14 0 17 -3 15 -14 -13 -18 -47 -18 -60 0 -60 8 0 15 -4 15 -10 0 -5 -7
-10 -15 -10 -8 0 -15 5 -15 10 0 21 -18 9 -22 -15 -4 -17 -1 -25 8 -25 15 0
17 -10 8 -34 -5 -12 -10 -13 -25 -5 -16 8 -19 6 -19 -14 0 -16 -7 -26 -20 -30
-12 -3 -20 -14 -20 -27 0 -12 -11 -31 -25 -42 -14 -11 -25 -30 -25 -43 0 -14
-9 -29 -20 -35 -11 -6 -20 -18 -20 -28 0 -9 -7 -26 -15 -36 -8 -11 -15 -29
-16 -40 -1 -36 -37 -131 -48 -128 -6 1 -11 -8 -11 -21 0 -40 58 -55 125 -33
11 4 34 28 50 54 17 26 40 51 53 57 14 6 22 18 22 35 0 14 13 41 29 61 16 19
39 55 50 81 12 25 33 56 47 68 13 13 24 32 24 43 0 10 18 37 40 59 22 23 40
50 40 60 0 11 15 33 34 51 18 18 36 39 40 47 3 8 22 35 41 60 19 25 48 65 63
89 15 25 36 54 48 65 12 12 24 31 28 44 4 12 12 22 19 22 8 0 8 3 0 11 -18 18
-3 48 26 51 23 3 26 7 24 40 -2 31 1 37 20 40 12 2 32 19 45 38 12 19 35 50
50 69 29 37 102 158 102 170 0 4 11 22 25 41 15 20 25 47 25 67 0 26 5 35 25
43 15 6 49 46 86 102 34 51 82 118 107 148 68 82 212 229 252 256 19 13 73 53
120 89 47 36 93 65 103 65 10 0 52 14 92 31 172 71 351 63 475 -22 74 -52 88
-64 144 -134 27 -33 59 -68 72 -77 28 -23 136 -58 178 -58 52 0 141 -25 177
-49 19 -13 55 -45 80 -73 l45 -49 35 16 c21 10 51 42 79 82 69 99 120 156 174
191 26 18 52 32 57 32 4 0 30 12 56 27 46 26 67 36 163 83 25 12 70 44 100 70
101 87 182 108 385 99 77 -3 149 -11 160 -17 11 -6 47 -22 79 -34 33 -13 64
-32 70 -43 6 -11 17 -24 24 -28 59 -38 103 -138 83 -189 -6 -16 -18 -28 -28
-28 -14 0 -15 -2 -5 -9 13 -8 5 -13 -63 -36 -34 -12 -79 -19 -110 -17 -136 6
-162 2 -247 -39 -10 -5 -25 -9 -33 -9 -8 0 -15 -6 -15 -14 0 -8 -42 -35 -95
-60 -52 -26 -95 -50 -95 -55 0 -8 -112 -147 -129 -161 -15 -12 -53 -86 -77
-150 -8 -19 -14 -62 -14 -96 0 -69 22 -118 94 -213 23 -31 60 -81 81 -111 81
-118 137 -179 169 -186 17 -4 40 -13 51 -21 11 -7 37 -18 57 -24 56 -15 154
-113 164 -163 6 -35 4 -42 -20 -61 -14 -11 -34 -22 -43 -23 -33 -3 -48 -8 -63
-17 -8 -5 -22 -10 -30 -10 -22 0 -14 -75 15 -153 61 -156 78 -199 92 -226 19
-37 89 -238 87 -251 0 -5 -4 -18 -9 -29 -5 -10 -3 -32 3 -50 10 -30 6 -86 -7
-86 -31 1 -37 36 -16 91 4 10 -3 20 -20 29 -14 7 -25 22 -25 33 0 29 -48 87
-71 87 -11 0 -22 7 -26 16 -5 13 -11 10 -34 -12 -23 -22 -29 -36 -27 -62 2
-22 -2 -37 -10 -40 -11 -3 -13 10 -8 64 10 123 6 158 -17 162 -13 3 -15 10
-10 30 3 15 12 32 19 37 20 16 19 56 -1 98 -18 35 -20 37 -32 21 -7 -10 -13
-28 -13 -41 0 -13 -4 -23 -9 -23 -12 0 -31 -57 -25 -74 3 -7 -2 -19 -11 -26
-12 -10 -15 -10 -15 5 0 14 -3 15 -14 6 -11 -9 -15 -7 -20 11 -3 13 -6 33 -6
44 0 14 -21 41 -53 70 -41 38 -53 56 -55 82 -1 19 -9 41 -17 49 -8 8 -15 21
-15 29 0 16 -28 18 -66 4 -18 -7 -30 -7 -39 0 -6 5 -15 7 -19 3 -4 -4 -11 -1
-16 6 -6 11 -14 10 -38 -8 -43 -30 -46 -27 -17 24 l27 45 -30 -4 c-17 -2 -54
-20 -81 -40 l-51 -36 0 25 c0 14 5 34 12 44 9 15 9 23 -1 35 -18 22 -36 20
-53 -6 -9 -14 -20 -19 -31 -15 -24 9 -21 25 5 29 18 2 25 13 34 53 6 28 17 63
23 78 12 31 14 77 5 101 -5 14 -9 14 -21 4 -13 -10 -20 -7 -42 19 -30 36 -96
65 -158 68 -53 4 -102 -28 -133 -87 l-22 -43 5 42 c6 48 45 108 94 143 19 14
40 31 48 38 7 6 18 12 22 12 5 0 19 11 31 25 l22 25 -23 0 c-62 0 -186 -125
-237 -240 -13 -30 -43 -82 -66 -115 -65 -95 -74 -128 -80 -295 -5 -138 -4
-151 16 -190 12 -23 27 -70 34 -104 8 -33 21 -78 29 -98 9 -21 13 -38 9 -39
-4 -1 -18 -2 -32 -2 -18 -2 -24 -7 -22 -19 3 -20 -24 -25 -30 -6 -6 16 -79 19
-97 4 -11 -8 -13 -8 -7 2 4 6 2 13 -3 13 -6 1 -17 2 -23 3 -7 1 -16 -2 -19 -7
-10 -14 -53 130 -70 238 -4 28 -17 79 -28 115 -15 45 -21 92 -21 156 0 97 6
124 50 219 15 33 31 76 35 95 12 59 82 192 129 246 25 28 42 54 39 58 -3 3 2
6 11 6 10 0 30 10 44 21 15 12 20 19 12 17 -8 -3 -23 -1 -33 4 -16 8 -18 7
-12 -11 4 -12 2 -21 -4 -21 -6 0 -11 4 -11 10 0 15 -69 -23 -75 -42 -7 -21
-46 -33 -77 -25 -12 4 -28 1 -36 -5 -11 -10 -16 -8 -24 6 -8 15 -12 16 -19 5
-6 -10 -9 -4 -9 19 0 18 -5 32 -12 33 -7 1 -19 2 -27 3 -24 2 -52 51 -56 98
-3 40 2 54 36 104 24 37 39 71 39 91 l0 32 68 -5 c81 -7 233 -43 360 -86 89
-30 116 -32 95 -6 -6 7 -20 38 -31 68 -58 155 -86 180 -199 180 -96 0 -160 18
-198 55 -30 30 -99 142 -148 240 -37 74 -91 132 -130 140 -17 3 -44 11 -59 17
-21 8 -34 6 -59 -6 -18 -9 -37 -16 -43 -16 -6 0 -19 -9 -29 -20 -18 -21 -43
-28 -31 -8 9 15 12 58 4 58 -4 0 -17 -11 -30 -25 -21 -22 -22 -29 -12 -45 8
-13 8 -20 2 -20 -6 0 -16 -11 -22 -25 -6 -14 -15 -25 -19 -25 -15 0 -19 34 -4
50 21 23 19 30 -10 30 -25 0 -30 -11 -27 -52 1 -11 -17 -26 -53 -44 -48 -23
-54 -29 -49 -50 4 -15 2 -24 -5 -24 -11 0 -15 20 -12 48 2 10 -2 11 -18 2 -23
-12 -27 -25 -10 -36 6 -4 7 -10 2 -15 -6 -6 -22 -3 -41 7 -35 17 -42 34 -14
34 9 0 23 12 30 27 17 38 15 45 -8 31 -11 -7 -20 -18 -20 -24 0 -6 -9 -19 -21
-30 -16 -15 -24 -16 -39 -6 -12 7 -21 8 -25 2 -3 -6 -1 -10 4 -10 16 0 13 -27
-4 -34 -25 -9 -6 -37 21 -30 13 3 24 2 24 -4 0 -5 -12 -12 -27 -15 -28 -5 -55
13 -67 47 -9 27 -15 16 -9 -16 3 -16 12 -28 19 -28 8 0 14 -4 14 -10 0 -5 -4
-10 -10 -10 -5 0 -7 -7 -4 -15 7 -18 -45 -42 -56 -25 -4 6 -14 8 -22 5 -9 -4
-19 -2 -23 4 -10 17 -25 13 -19 -4 4 -8 12 -15 20 -15 16 0 19 -16 4 -25 -6
-4 -8 -11 -5 -16 3 -5 -3 -18 -14 -30 -17 -18 -23 -20 -36 -9 -12 10 -15 10
-15 -3 0 -9 7 -20 16 -25 9 -5 14 -14 10 -21 -10 -15 -33 -14 -39 2 -3 6 -6 3
-6 -9 -1 -11 2 -24 6 -28 5 -4 9 -25 10 -47 1 -29 -3 -42 -17 -49 -28 -15 -33
-12 -27 15 3 16 0 24 -7 22 -6 -2 -11 -11 -11 -20 0 -9 -9 -23 -20 -31 -11 -9
-16 -16 -12 -16 4 0 3 -8 -2 -18 -10 -19 1 -43 41 -86 13 -14 15 -23 7 -32 -6
-7 -8 -17 -6 -22 3 -4 2 -14 -3 -21 -5 -10 -10 -4 -15 18 -5 25 -11 31 -28 29
-18 -3 -22 2 -20 25 2 33 -2 34 -32 5 -29 -28 -22 -57 16 -65 28 -5 43 -36 17
-32 -7 1 -22 1 -33 0 -20 -2 -20 -2 -1 -16 16 -12 17 -18 8 -27 -9 -9 -15 -9
-23 -1 -6 6 -17 9 -24 7 -7 -3 -16 -1 -20 5 -9 16 -25 13 -25 -4 0 -8 9 -15
20 -15 29 0 25 -25 -6 -39 -16 -7 -24 -17 -21 -26 3 -7 -1 -19 -9 -26 -8 -7
-13 -18 -10 -25 2 -7 -4 -20 -16 -30 -19 -18 -21 -18 -32 -2 -8 11 -16 14 -23
7 -14 -14 -4 -69 13 -69 23 0 16 -20 -10 -30 -31 -11 -52 -46 -33 -54 6 -3 1
-3 -13 0 -34 6 -91 -38 -73 -57 8 -8 17 -9 26 -3 7 5 3 0 -8 -11 -12 -11 -32
-35 -44 -52 -24 -35 -71 -47 -71 -18 0 8 -6 15 -14 15 -8 0 -16 8 -19 18 -2 9
-8 -2 -12 -25 -5 -27 -13 -43 -22 -43 -28 0 -8 -35 22 -40 l30 -5 -37 -22
c-25 -15 -38 -18 -41 -10 -3 8 -12 5 -26 -9 -18 -17 -20 -25 -12 -47 9 -22 7
-29 -12 -42 -12 -8 -26 -15 -33 -15 -15 0 -36 -43 -32 -66 2 -15 -4 -20 -34
-22 -29 -2 -39 1 -48 17 -6 12 -15 21 -20 21 -15 0 -12 -28 7 -67 13 -28 14
-36 3 -43 -7 -4 -10 -15 -7 -23 4 -10 -1 -18 -14 -22 -15 -5 -17 -10 -9 -26 8
-14 8 -20 -2 -24 -29 -9 -44 -9 -66 4 -22 12 -23 11 -17 -8 7 -22 -7 -42 -38
-54 -10 -4 -16 -11 -13 -16 3 -5 -5 -16 -19 -25 -14 -9 -25 -25 -25 -36 0 -11
-5 -29 -12 -39 -11 -17 -6 -25 32 -60 25 -22 59 -43 75 -47 17 -3 53 -24 82
-45 68 -50 206 -115 265 -123 26 -4 63 -18 83 -32 20 -13 40 -24 44 -24 4 0
19 -10 33 -22 14 -13 40 -34 57 -48 17 -14 34 -33 37 -43 3 -11 12 -16 20 -13
9 3 12 1 9 -4 -6 -9 34 -60 78 -99 24 -21 77 -99 77 -113 0 -6 -10 -2 -22 9
-13 11 -57 38 -98 60 -99 53 -124 67 -130 75 -3 3 -30 17 -60 31 -30 13 -107
49 -170 79 -175 83 -272 114 -435 138 -44 6 -107 15 -141 21 -79 12 -131 12
-139 -1 -3 -5 -15 -10 -25 -10 -10 0 -30 -14 -44 -31 -37 -44 -36 -101 3 -140
16 -16 36 -29 44 -29 8 0 18 -11 21 -24 3 -13 8 -31 11 -38 6 -15 -50 -78 -69
-78 -22 -1 -106 -87 -106 -108 0 -12 -9 -26 -19 -32 -11 -5 -30 -27 -42 -47
-13 -21 -31 -44 -41 -51 -10 -7 -18 -23 -18 -35 0 -12 -7 -31 -15 -41 -8 -11
-15 -28 -15 -38 0 -10 -5 -17 -12 -15 -6 1 -27 -28 -46 -65 -23 -43 -45 -71
-61 -78 -14 -6 -35 -25 -46 -42 -11 -18 -32 -39 -46 -47 -15 -9 -42 -34 -60
-56 -19 -22 -38 -42 -43 -44 -5 -2 -63 -58 -129 -125 -66 -66 -124 -121 -128
-121 -5 0 -16 -10 -24 -22 -12 -17 -26 -23 -53 -23 -28 0 -33 3 -22 10 12 8
12 10 1 10 -10 0 -12 9 -7 34 4 22 2 36 -5 38 -17 6 -3 40 31 80 16 18 32 44
35 57 12 46 56 110 78 113 13 2 23 11 25 23 5 32 63 149 82 165 21 19 84 130
73 130 -13 -1 -53 -37 -53 -49 0 -6 -7 -11 -15 -11 -8 0 -15 2 -15 3 0 21 47
138 65 161 29 39 138 264 160 331 9 27 21 55 27 62 6 7 8 13 5 13 -3 0 7 26
23 58 15 31 31 73 35 92 4 19 13 46 20 60 7 14 23 52 36 85 12 33 43 101 69
150 25 50 54 111 64 137 9 25 37 85 61 133 25 48 45 93 45 100 0 7 6 18 14 24
8 7 17 28 21 49 4 20 10 42 15 47 7 9 39 94 76 205 8 25 19 54 24 65 5 11 11
37 15 58 7 43 30 50 46 13 8 -16 17 -22 30 -19 10 3 19 11 19 17 0 23 -28 51
-52 51 -26 0 -27 10 -3 90 8 28 22 75 30 105 23 83 29 89 58 58 25 -27 47 -22
47 10 0 11 -3 12 -14 3 -11 -10 -16 -8 -21 8 -3 12 -13 21 -21 21 -8 0 -14 2
-14 5 0 7 41 137 50 160 5 11 11 34 14 50 3 17 17 73 31 125 86 316 89 329 71
349 -9 9 -16 27 -16 38 0 11 -7 26 -15 33 -8 7 -15 17 -15 22 0 5 -11 24 -25
42 -14 18 -25 37 -25 42 0 5 -13 29 -30 54 -42 63 -46 92 -20 146 26 52 75 89
138 103 58 12 170 -3 215 -29 l37 -22 57 33 c221 123 297 139 432 85z m31
-320 c0 -8 -10 -16 -22 -20 -35 -9 -41 -7 -28 9 7 8 16 12 21 9 5 -3 9 2 9 11
0 9 5 13 10 10 6 -3 10 -12 10 -19z m-90 -6 c0 -5 -4 -10 -10 -10 -5 0 -10 5
-10 10 0 6 5 10 10 10 6 0 10 -4 10 -10z m-40 -54 c0 -18 -17 -29 -30 -21 -8
5 -7 11 1 21 15 18 29 18 29 0z m12 -48 c-7 -7 -12 -8 -12 -2 0 14 12 26 19
19 2 -3 -1 -11 -7 -17z m-58 -22 c-6 -16 -24 -23 -24 -8 0 10 22 33 27 28 2
-2 1 -11 -3 -20z m-44 -5 c0 -6 -4 -13 -10 -16 -5 -3 -10 1 -10 9 0 9 5 16 10
16 6 0 10 -4 10 -9z m15 -41 c3 -5 1 -10 -4 -10 -6 0 -11 5 -11 10 0 6 2 10 4
10 3 0 8 -4 11 -10z m-20 -40 c3 -5 1 -10 -4 -10 -6 0 -11 5 -11 10 0 6 2 10
4 10 3 0 8 -4 11 -10z m45 0 c0 -5 -5 -10 -11 -10 -5 0 -7 5 -4 10 3 6 8 10
11 10 2 0 4 -4 4 -10z m-127 -14 c3 -8 0 -20 -8 -26 -8 -6 -11 -18 -8 -26 3
-9 -1 -14 -12 -14 -12 0 -15 5 -11 16 3 9 9 27 12 40 7 27 19 31 27 10z m37 0
c0 -3 -4 -8 -10 -11 -5 -3 -10 -1 -10 4 0 6 5 11 10 11 6 0 10 -2 10 -4z m140
-26 c0 -5 -5 -10 -11 -10 -5 0 -7 5 -4 10 3 6 8 10 11 10 2 0 4 -4 4 -10z
m-122 -35 c-6 -14 -15 -25 -19 -25 -4 0 -2 11 4 25 7 14 15 25 19 25 4 0 2
-11 -4 -25z m-119 -19 c8 -10 9 -16 1 -21 -13 -8 -30 3 -30 21 0 18 14 18 29
0z m21 -42 c0 -8 -5 -12 -10 -9 -6 4 -8 11 -5 16 9 14 15 11 15 -7z m940 -4
c0 -5 -7 -10 -15 -10 -8 0 -15 5 -15 10 0 6 7 10 15 10 8 0 15 -4 15 -10z
m-981 -15 c-9 -37 -12 -45 -20 -45 -15 0 -20 20 -9 40 11 21 34 24 29 5z m62
-18 c-10 -9 -11 -8 -5 6 3 10 9 15 12 12 3 -3 0 -11 -7 -18z m969 3 c0 -5 -12
-10 -26 -10 -14 0 -23 4 -19 10 3 6 15 10 26 10 10 0 19 -4 19 -10z m-1098
-32 c-15 -15 -26 -4 -18 18 5 13 9 15 18 6 9 -9 9 -15 0 -24z m98 1 c0 -5 -4
-9 -10 -9 -5 0 -10 7 -10 16 0 8 5 12 10 9 6 -3 10 -10 10 -16z m170 -5 c0 -8
-4 -14 -10 -14 -5 0 -10 9 -10 21 0 11 5 17 10 14 6 -3 10 -13 10 -21z m-60 6
c0 -5 -7 -10 -15 -10 -8 0 -15 5 -15 10 0 6 7 10 15 10 8 0 15 -4 15 -10z
m835 -10 c-3 -5 -13 -10 -21 -10 -8 0 -14 5 -14 10 0 6 9 10 21 10 11 0 17 -4
14 -10z m-60 -10 c3 -5 1 -10 -4 -10 -6 0 -11 5 -11 10 0 6 2 10 4 10 3 0 8
-4 11 -10z m-1045 -19 c0 -20 -17 -37 -27 -28 -7 8 7 47 18 47 5 0 9 -9 9 -19z
m85 9 c3 -5 1 -10 -4 -10 -6 0 -11 5 -11 10 0 6 2 10 4 10 3 0 8 -4 11 -10z
m215 -24 c0 -24 -16 -43 -27 -32 -3 3 -2 13 2 23 5 10 7 21 7 26 -1 4 3 7 8 7
6 0 10 -11 10 -24z m897 18 c-3 -3 -12 -4 -19 -1 -8 3 -5 6 6 6 11 1 17 -2 13
-5z m-1157 -16 c0 -7 -4 -19 -9 -27 -11 -17 -23 1 -15 23 7 19 24 21 24 4z
m47 -23 c-4 -8 -11 -15 -17 -15 -14 0 -13 27 3 33 16 6 21 1 14 -18z m83 21
c0 -3 -4 -8 -10 -11 -5 -3 -10 -1 -10 4 0 6 5 11 10 11 6 0 10 -2 10 -4z m905
-6 c-27 -12 -35 -12 -35 0 0 6 12 10 28 9 24 0 25 -1 7 -9z m-883 -22 c-7 -7
-12 -8 -12 -2 0 14 12 26 19 19 2 -3 -1 -11 -7 -17z m779 -9 c-25 -20 -42 -21
-48 -2 -4 12 17 20 52 22 19 0 18 -1 -4 -20z m79 -19 c0 -5 -11 -10 -25 -10
-14 0 -25 5 -25 10 0 6 11 10 25 10 14 0 25 -4 25 -10z m-1030 -10 c0 -5 -4
-10 -10 -10 -5 0 -10 5 -10 10 0 6 5 10 10 10 6 0 10 -4 10 -10z m-50 -10 c0
-5 -4 -10 -10 -10 -5 0 -10 5 -10 10 0 6 5 10 10 10 6 0 10 -4 10 -10z m95 -9
c3 -5 1 -12 -5 -16 -5 -3 -10 1 -10 9 0 18 6 21 15 7z m205 -20 c0 -17 -4 -33
-10 -36 -6 -4 -10 8 -10 29 0 20 5 36 10 36 6 0 10 -13 10 -29z m690 25 c0 -9
-63 -36 -69 -30 -9 8 30 34 51 34 10 0 18 -2 18 -4z m61 -29 c-13 -13 -26 -3
-16 12 3 6 11 8 17 5 6 -4 6 -10 -1 -17z m-1021 4 c0 -6 -4 -13 -10 -16 -5 -3
-10 1 -10 9 0 9 5 16 10 16 6 0 10 -4 10 -9z m974 -15 c-3 -9 -14 -16 -23 -16
-9 0 -25 -7 -35 -15 -10 -8 -23 -12 -28 -9 -13 8 1 24 23 24 10 0 19 3 19 8 0
7 42 30 48 26 1 0 0 -9 -4 -18z m-938 -23 c-11 -11 -19 6 -11 24 8 17 8 17 12
0 3 -10 2 -21 -1 -24z m1024 17 c0 -5 -2 -10 -4 -10 -3 0 -8 5 -11 10 -3 6 -1
10 4 10 6 0 11 -4 11 -10z m-1150 -10 c0 -5 -4 -10 -10 -10 -5 0 -10 5 -10 10
0 6 5 10 10 10 6 0 10 -4 10 -10z m1103 -10 c-3 -11 -9 -20 -14 -20 -10 0 -12
24 -2 33 13 13 21 7 16 -13z m-1075 -12 c-2 -6 -10 -14 -16 -16 -7 -2 -10 2
-6 12 7 18 28 22 22 4z m307 -18 c0 -7 -6 -15 -12 -17 -8 -3 -13 4 -13 17 0
13 5 20 13 18 6 -3 12 -11 12 -18z m719 -11 c-9 -15 -24 -10 -18 6 5 11 1 14
-12 9 -15 -5 -16 -4 -4 4 16 12 44 -4 34 -19z m-989 12 c3 -5 1 -12 -5 -16 -5
-3 -10 1 -10 9 0 18 6 21 15 7z m-85 -11 c0 -5 -4 -10 -10 -10 -5 0 -10 5 -10
10 0 6 5 10 10 10 6 0 10 -4 10 -10z m1010 1 c0 -5 -7 -11 -15 -15 -9 -3 -15
0 -15 9 0 8 7 15 15 15 8 0 15 -4 15 -9z m-980 -26 c0 -8 -7 -15 -15 -15 -9 0
-12 6 -9 15 4 8 10 15 15 15 5 0 9 -7 9 -15z m1095 6 c3 -6 -4 -9 -15 -8 -11
1 -20 5 -20 9 0 11 28 10 35 -1z m-1055 -11 c0 -5 -4 -10 -10 -10 -5 0 -10 5
-10 10 0 6 5 10 10 10 6 0 10 -4 10 -10z m50 0 c0 -5 -4 -10 -10 -10 -5 0 -10
5 -10 10 0 6 5 10 10 10 6 0 10 -4 10 -10z m880 -10 c-20 -13 -43 -13 -35 0 3
6 16 10 28 10 18 0 19 -2 7 -10z m87 -29 c-10 -4 -27 17 -27 33 0 5 8 1 19
-10 10 -10 14 -21 8 -23z m-1117 13 c0 -8 -4 -12 -10 -9 -5 3 -10 10 -10 16 0
5 5 9 10 9 6 0 10 -7 10 -16z m378 -6 c-7 -19 -38 -22 -38 -4 0 10 9 16 21 16
12 0 19 -5 17 -12z m-338 -23 c0 -8 -4 -15 -9 -15 -13 0 -22 16 -14 24 11 11
23 6 23 -9z m970 6 c0 -10 -24 -21 -43 -21 -7 0 -3 7 7 15 22 17 36 19 36 6z
m70 0 c0 -10 -30 -24 -37 -17 -3 3 -2 9 2 15 8 13 35 15 35 2z m-1190 -18 c0
9 5 17 10 17 6 0 10 -7 10 -16 0 -8 4 -13 9 -10 5 3 14 -1 21 -9 13 -15 14
-14 -35 -30 -22 -6 -58 32 -50 53 6 15 8 15 21 -2 12 -17 14 -18 14 -3z m182
-5 c-7 -7 -12 -8 -12 -2 0 14 12 26 19 19 2 -3 -1 -11 -7 -17z m58 18 c0 -3
-4 -8 -10 -11 -5 -3 -10 -1 -10 4 0 6 5 11 10 11 6 0 10 -2 10 -4z m-140 -23
c0 -5 -4 -15 -10 -23 -11 -18 -25 -7 -17 15 6 15 27 21 27 8z m200 -8 c0 -8
-4 -15 -10 -15 -5 0 -7 7 -4 15 4 8 8 15 10 15 2 0 4 -7 4 -15z m746 4 c10
-17 -13 -36 -27 -22 -12 12 -4 33 11 33 5 0 12 -5 16 -11z m50 -21 c4 -6 2
-14 -4 -16 -7 -2 -12 -9 -12 -16 0 -7 -15 -12 -36 -13 -22 -1 -34 3 -31 10 2
7 16 11 31 10 22 -2 25 1 17 11 -6 7 -8 16 -4 19 10 11 31 8 39 -5z m48 -4 c9
-22 -3 -32 -14 -14 -12 19 -12 30 -1 30 5 0 12 -7 15 -16z m-924 -4 c0 -5 -4
-10 -10 -10 -5 0 -10 5 -10 10 0 6 5 10 10 10 6 0 10 -4 10 -10z m34 -15 c-6
-16 -24 -21 -24 -7 0 11 11 22 21 22 5 0 6 -7 3 -15z m80 0 c-4 -8 -10 -15
-15 -15 -4 0 -6 7 -3 15 4 8 10 15 15 15 4 0 6 -7 3 -15z m-220 -22 c-9 -37
-14 -44 -24 -38 -11 7 8 65 21 65 5 0 6 -12 3 -27z m-58 -39 c-3 -8 -10 -12
-16 -9 -7 4 -6 14 2 28 12 24 24 8 14 -19z m91 14 c-3 -8 -6 -5 -6 6 -1 11 2
17 5 13 3 -3 4 -12 1 -19z m297 13 c3 -5 -1 -14 -9 -21 -8 -7 -15 -10 -15 -7
0 3 -3 12 -6 21 -7 17 20 23 30 7z m691 0 c3 -5 1 -12 -4 -15 -5 -3 -11 1 -15
9 -6 16 9 21 19 6z m-45 -21 c0 -5 -7 -10 -15 -10 -8 0 -15 5 -15 10 0 6 7 10
15 10 8 0 15 -4 15 -10z m-793 -32 c-3 -8 -6 -5 -6 6 -1 11 2 17 5 13 3 -3 4
-12 1 -19z m797 -16 c-19 -18 -54 -19 -54 -1 0 9 14 13 37 10 6 -1 15 3 18 9
4 6 10 9 13 6 3 -4 -3 -14 -14 -24z m-1014 -7 c0 -8 -4 -15 -10 -15 -5 0 -10
7 -10 15 0 8 5 15 10 15 6 0 10 -7 10 -15z m50 5 c0 -5 -2 -10 -4 -10 -3 0 -8
5 -11 10 -3 6 -1 10 4 10 6 0 11 -4 11 -10z m50 1 c0 -6 -4 -13 -10 -16 -5 -3
-10 1 -10 9 0 9 5 16 10 16 6 0 10 -4 10 -9z m220 -41 c5 0 11 6 13 13 4 8 6
7 6 -3 0 -8 -4 -22 -9 -30 -9 -13 -11 -13 -20 0 -5 8 -9 24 -9 35 1 17 2 17 6
3 2 -10 8 -18 13 -18z m685 0 c-3 -5 -10 -10 -16 -10 -5 0 -9 5 -9 10 0 6 7
10 16 10 8 0 12 -4 9 -10z m-41 -25 c6 -18 -2 -45 -15 -45 -5 0 -9 7 -9 15 0
17 -21 20 -37 4 -14 -14 -4 -49 14 -49 10 0 13 -6 9 -16 -3 -9 -6 -20 -6 -25
0 -18 -15 -8 -31 20 -14 24 -15 32 -3 60 7 17 23 35 36 41 32 12 35 12 42 -5z
m-904 -20 c0 -8 -4 -15 -10 -15 -5 0 -10 7 -10 15 0 8 5 15 10 15 6 0 10 -7
10 -15z m-135 -4 c3 -5 1 -12 -5 -16 -5 -3 -10 1 -10 9 0 18 6 21 15 7z m86
-24 c-13 -13 -26 -3 -16 12 3 6 11 8 17 5 6 -4 6 -10 -1 -17z m75 -14 c-10
-10 -19 5 -10 18 6 11 8 11 12 0 2 -7 1 -15 -2 -18z m-126 -3 c0 -5 -4 -10
-10 -10 -5 0 -10 5 -10 10 0 6 5 10 10 10 6 0 10 -4 10 -10z m898 -36 c-1 -13
-6 -24 -11 -24 -5 0 -6 -15 -3 -34 l7 -35 -38 6 c-37 5 -61 18 -52 27 2 3 17
7 33 10 37 7 38 8 26 41 -8 20 -7 31 1 41 16 20 39 -1 37 -32z m-990 -22 c18
-23 15 -30 -13 -25 -28 6 -50 28 -41 42 8 13 37 3 54 -17z m62 -2 c0 -5 -2
-10 -4 -10 -3 0 -8 5 -11 10 -3 6 -1 10 4 10 6 0 11 -4 11 -10z m-103 -43 c10
-13 24 -22 31 -19 15 5 15 -3 2 -29 -15 -27 -45 -24 -80 11 -32 31 -40 53 -16
44 8 -3 17 -1 21 5 10 17 22 13 42 -12z m1073 8 c0 -8 -4 -15 -10 -15 -5 0
-10 7 -10 15 0 8 5 15 10 15 6 0 10 -7 10 -15z m1215 -4 c3 -5 1 -12 -5 -16
-5 -3 -10 1 -10 9 0 18 6 21 15 7z m-2215 -41 c0 -5 -2 -10 -4 -10 -3 0 -8 5
-11 10 -3 6 -1 10 4 10 6 0 11 -4 11 -10z m100 -4 c0 -3 -4 -8 -10 -11 -5 -3
-10 -1 -10 4 0 6 5 11 10 11 6 0 10 -2 10 -4z m809 -30 c7 -8 8 -17 3 -20 -6
-3 -15 1 -22 9 -6 7 -18 11 -26 8 -8 -3 -14 0 -14 6 0 16 45 14 59 -3z m-936
-54 c-7 -16 -43 14 -43 35 0 11 5 10 24 -4 13 -10 21 -24 19 -31z m37 -56 c0
-3 -4 -8 -10 -11 -5 -3 -10 -1 -10 4 0 6 5 11 10 11 6 0 10 -2 10 -4z m770
-10 c0 -3 -4 -8 -10 -11 -5 -3 -10 -1 -10 4 0 6 5 11 10 11 6 0 10 -2 10 -4z
m-840 -35 c0 -6 -4 -13 -10 -16 -5 -3 -10 1 -10 9 0 9 5 16 10 16 6 0 10 -4
10 -9z m755 -41 c3 -5 -3 -10 -15 -10 -12 0 -18 5 -15 10 3 6 10 10 15 10 5 0
12 -4 15 -10z m-3315 -204 c0 -3 -4 -8 -10 -11 -5 -3 -10 -1 -10 4 0 6 5 11
10 11 6 0 10 -2 10 -4z m3796 -33 c-10 -10 -19 5 -10 18 6 11 8 11 12 0 2 -7
1 -15 -2 -18z m4 -53 c0 -5 -5 -10 -11 -10 -5 0 -7 5 -4 10 3 6 8 10 11 10 2
0 4 -4 4 -10z m1660 -10 c-19 -13 -30 -13 -30 0 0 6 10 10 23 10 18 0 19 -2 7
-10z m-1663 -102 c-3 -8 -6 -5 -6 6 -1 11 2 17 5 13 3 -3 4 -12 1 -19z m4
-111 c-6 -6 -14 -7 -18 -2 -5 4 -2 10 5 12 6 3 13 12 13 21 1 14 2 14 6 -2 3
-10 0 -23 -6 -29z m9 -52 c0 -8 -4 -15 -10 -15 -5 0 -10 7 -10 15 0 8 5 15 10
15 6 0 10 -7 10 -15z m-1033 -32 c5 -13 -32 -27 -46 -18 -6 3 -8 12 -4 21 6
17 44 15 50 -3z m1021 -24 c-2 -6 -8 -10 -13 -10 -5 0 -11 4 -13 10 -2 6 4 11
13 11 9 0 15 -5 13 -11z m-2 -94 c-3 -9 -11 -13 -16 -10 -8 5 -7 11 1 21 14
18 24 11 15 -11z m-6 -70 c0 -8 -7 -15 -15 -15 -26 0 -18 20 13 29 1 1 2 -6 2
-14z m-5 -76 c-10 -15 -25 -10 -19 6 4 8 10 12 15 9 5 -3 7 -10 4 -15z m345
-18 c0 -10 -89 -26 -97 -17 -3 2 -2 9 2 15 8 13 95 15 95 2z m-349 -66 c-3 -5
-7 -2 -9 8 -2 9 -8 15 -13 12 -13 -9 -11 9 4 24 10 10 13 7 18 -11 3 -13 3
-27 0 -33z m319 -5 c-8 -5 -33 -9 -55 -9 -39 1 -39 2 -10 9 17 4 41 8 55 9 20
0 22 -1 10 -9z m-321 -42 c-1 -18 -3 -25 -6 -15 -2 9 -8 17 -13 17 -5 0 -7 7
-4 15 11 27 24 16 23 -17z m341 -25 c-8 -2 -25 -9 -37 -15 -11 -6 -27 -8 -35
-5 -17 6 29 26 62 26 14 -1 18 -3 10 -6z m-349 -46 c-16 -16 -26 0 -10 19 9
11 15 12 17 4 2 -6 -1 -17 -7 -23z m434 -7 c-6 -9 -97 -40 -119 -40 -19 0 9
19 49 34 47 17 79 20 70 6z m-429 -57 c-10 -10 -19 5 -10 18 6 11 8 11 12 0 2
-7 1 -15 -2 -18z m-1171 -529 c-11 -9 -28 -20 -38 -25 -16 -9 -17 -8 -8 9 11
21 26 30 51 31 11 0 10 -4 -5 -15z m125 0 c22 -9 40 -20 40 -24 0 -10 -101 -7
-117 3 -7 5 -13 15 -13 23 0 19 39 18 90 -2z m-1134 -71 c-10 -10 -19 5 -10
18 6 11 8 11 12 0 2 -7 1 -15 -2 -18z m864 -372 c0 -11 -7 -26 -15 -35 -8 -8
-15 -19 -15 -25 0 -6 -7 -11 -15 -11 -8 0 -15 4 -15 9 0 5 -3 16 -6 25 -4 10
5 22 28 36 40 24 38 24 38 1z"/>
<path d="M9296 4701 c-4 -7 -5 -15 -2 -18 9 -9 19 4 14 18 -4 11 -6 11 -12 0z"/>
<path d="M3800 6045 c-10 -13 -9 -15 9 -15 11 0 21 4 21 9 0 18 -18 21 -30 6z"/>
<path d="M4710 5838 c0 -2 4 -19 10 -37 8 -28 6 -38 -7 -53 -19 -22 -5 -24 23
-3 10 8 28 15 39 15 19 1 19 2 -2 17 -13 8 -23 21 -23 29 0 7 -9 18 -20 24
-11 6 -20 9 -20 8z"/>
<path d="M3360 5815 c0 -8 5 -15 10 -15 6 0 10 7 10 15 0 8 -4 15 -10 15 -5 0
-10 -7 -10 -15z"/>
<path d="M4615 5790 c-3 -5 -1 -10 4 -10 6 0 11 5 11 10 0 6 -2 10 -4 10 -3 0
-8 -4 -11 -10z"/>
<path d="M3320 5775 c0 -8 4 -15 10 -15 5 0 7 7 4 15 -4 8 -8 15 -10 15 -2 0
-4 -7 -4 -15z"/>
<path d="M3330 5730 c0 -5 5 -10 10 -10 6 0 10 5 10 10 0 6 -4 10 -10 10 -5 0
-10 -4 -10 -10z"/>
<path d="M4570 5730 c0 -5 5 -10 10 -10 6 0 10 5 10 10 0 6 -4 10 -10 10 -5 0
-10 -4 -10 -10z"/>
<path d="M3300 5670 c0 -11 -4 -20 -10 -20 -5 0 -10 -5 -10 -11 0 -5 5 -7 10
-4 6 4 18 1 26 -6 17 -14 84 -19 84 -7 0 4 -5 8 -11 8 -5 0 -7 4 -4 10 4 6 -4
9 -17 7 -15 -1 -26 5 -33 21 -12 27 -35 29 -35 2z"/>
<path d="M4436 5606 c3 -9 13 -16 22 -16 8 0 13 1 11 3 -2 1 -12 9 -22 16 -15
12 -17 12 -11 -3z"/>
<path d="M3290 5593 c0 -12 5 -25 10 -28 13 -8 13 15 0 35 -8 12 -10 11 -10
-7z"/>
<path d="M4455 5570 c4 -6 11 -8 16 -5 14 9 11 15 -7 15 -8 0 -12 -5 -9 -10z"/>
<path d="M3245 5553 c4 -10 10 -29 13 -43 7 -36 31 -60 58 -58 25 2 28 7 18
32 -3 9 -10 13 -15 10 -14 -8 -50 38 -45 59 3 12 -2 17 -16 17 -15 0 -18 -4
-13 -17z"/>
<path d="M3220 5483 c0 -10 12 -29 25 -42 23 -21 25 -21 25 -4 0 21 -27 63
-41 63 -5 0 -9 -8 -9 -17z"/>
<path d="M3291 5414 c0 -11 3 -14 6 -6 3 7 2 16 -1 19 -3 4 -6 -2 -5 -13z"/>
<path d="M3155 5251 c-3 -5 -1 -12 5 -16 5 -3 10 1 10 9 0 18 -6 21 -15 7z"/>
<path d="M5770 5030 c0 -5 7 -7 15 -4 8 4 15 8 15 10 0 2 -7 4 -15 4 -8 0 -15
-4 -15 -10z"/>
<path d="M4015 4901 c-3 -5 -1 -12 4 -15 5 -3 11 1 15 9 6 16 -9 21 -19 6z"/>
<path d="M2983 4617 c1 -30 3 -33 18 -24 12 7 15 17 10 31 -13 34 -29 30 -28
-7z"/>
<path d="M2951 4514 c0 -11 3 -14 6 -6 3 7 2 16 -1 19 -3 4 -6 -2 -5 -13z"/>
<path d="M6705 4229 c-4 -6 -5 -12 -2 -15 2 -3 7 2 10 11 7 17 1 20 -8 4z"/>
<path d="M6857 3944 c-8 -8 3 -34 14 -34 5 0 9 9 9 20 0 19 -11 26 -23 14z"/>
<path d="M2656 3650 c15 -15 -16 -79 -38 -80 -20 0 -22 -4 -9 -28 6 -12 -2
-37 -28 -87 -30 -58 -41 -70 -61 -70 -29 0 -40 -11 -35 -37 3 -15 -1 -17 -20
-12 -30 7 -39 -12 -48 -99 -6 -64 4 -78 43 -57 18 10 19 14 8 28 -11 13 -11
15 3 10 19 -7 46 21 55 58 4 15 15 29 26 32 10 2 30 29 45 61 15 31 43 76 64
101 40 49 55 117 32 139 -7 6 -13 21 -13 31 0 12 -7 20 -17 20 -12 0 -14 -3
-7 -10z"/>
<path d="M2392 3148 c-17 -17 -15 -28 7 -28 19 0 35 23 24 34 -9 9 -18 7 -31
-6z"/>
</g>
</svg>
